# xmcd
#
# Track frame offsets:
#	150
#	14141
#	29646
#	47148
#	61284
#	80340
#	96341
#	113937
#	133276
#	151071
#
# Disc length: 2248 seconds
#
# Revision: 1
# Processed by: cddbd v1.5.2PL0 Copyright (c) Steve Scherf et al.
# Submitted via: audiograbber 1.83.01
#
DISCID=8908c60a
DTITLE=Annis Brander - Glass people in the woods
DYEAR=2011
DGENRE=
TTITLE0=Oh foolish me
TTITLE1=More than ice cream
TTITLE2=Grace
TTITLE3=Oh darling
TTITLE4=Goodnight
TTITLE5=You broke my heart
TTITLE6=Sweet Marianne
TTITLE7=Biggest betrayal in the world
TTITLE8=Burning sky
TTITLE9=Sleep
EXTD=
EXTT0=
EXTT1=
EXTT2=
EXTT3=
EXTT4=
EXTT5=
EXTT6=
EXTT7=
EXTT8=
EXTT9=
PLAYORDER=
